<svg xmlns="http://www.w3.org/2000/svg" width="512" height="512" viewBox="0 0 158.72 158.72" fill="none"><path fill="#f97316" d="M30.72 0H128a30.72 30.72 0 0 1 30.72 30.72V128A30.72 30.72 0 0 1 128 158.72H30.72A30.72 30.72 0 0 1 0 128V30.72A30.72 30.72 0 0 1 30.72 0"/><path d="M24.8 47.08v81.72a5.12 5.12 0 0 0 5.12 5.12h81.72c4.563 0 6.845-5.515 3.621-8.739L33.539 43.459c-3.227-3.227-8.739-.941-8.739 3.621" fill="#fff"/><path fill="#000" d="M104.16 48.051a23.253 23.253 0 0 1-23.251 23.251 23.253 23.253 0 0 1-23.251-23.251 23.251 23.251 0 0 1 46.501 0"/><path opacity=".4" fill="#fdba74" d="m61.275 212.037 8.661-8.659a5.12 5.12 0 0 1 7.24 0l8.499 8.496a5.12 5.12 0 0 1 0 7.24l-8.661 8.661a5.12 5.12 0 0 1-7.24 0l-8.499-8.496a5.12 5.12 0 0 1 0-7.243"/></svg>